<svg width="2260" height="702" viewBox="0 0 2260 702" fill="none" xmlns="http://www.w3.org/2000/svg">
<path fill-rule="evenodd" clip-rule="evenodd" d="M2216.21 0H1568.18C1566.02 21.5595 1547.82 38.3926 1525.7 38.3926C1503.57 38.3926 1485.37 21.5595 1483.21 0H100C44.7715 0 0 44.7715 0 100V602C0 657.228 44.7716 702 100 702H1484.26C1486.59 680.629 1504.7 664 1526.7 664C1548.69 664 1566.8 680.629 1569.14 702H2217.26C2219.59 680.629 2237.7 664 2259.7 664L2259.87 664L2260 664.001V647.392C2259.9 647.392 2259.8 647.393 2259.7 647.393C2236.12 647.393 2217 628.277 2217 604.696C2217 581.116 2236.12 562 2259.7 562L2259.83 562L2260 562.001V545.392C2259.9 545.392 2259.8 545.393 2259.7 545.393C2236.12 545.393 2217 526.277 2217 502.696C2217 479.116 2236.12 460 2259.7 460C2259.8 460 2259.9 460 2260 460.001V443.373C2259.57 443.386 2259.13 443.393 2258.7 443.393C2235.12 443.393 2216 424.277 2216 400.696C2216 377.116 2235.12 358 2258.7 358C2259.13 358 2259.57 358.007 2260 358.02V342.991C2259.77 342.994 2259.54 342.996 2259.3 342.996C2235.72 342.996 2216.61 323.881 2216.61 300.3C2216.61 276.72 2235.72 257.604 2259.3 257.604C2259.42 257.604 2259.54 257.604 2259.66 257.605C2259.78 257.606 2259.89 257.608 2260 257.609V242.392C2259.9 242.392 2259.8 242.393 2259.7 242.393C2236.12 242.393 2217 223.277 2217 199.696C2217 176.116 2236.12 157 2259.7 157C2259.8 157 2259.9 157 2260 157.001V140.373C2259.57 140.386 2259.13 140.393 2258.7 140.393C2235.12 140.393 2216 121.277 2216 97.6963C2216 74.1158 2235.12 55 2258.7 55C2259.13 55 2259.57 55.0065 2260 55.0195V38.3731C2259.57 38.386 2259.13 38.3926 2258.7 38.3926C2236.57 38.3926 2218.37 21.5595 2216.21 0ZM1526.3 257.604C1549.88 257.604 1569 276.72 1569 300.3C1569 323.881 1549.88 342.996 1526.3 342.996C1502.72 342.996 1483.61 323.881 1483.61 300.3C1483.61 276.72 1502.72 257.604 1526.3 257.604ZM1568.39 400.696C1568.39 377.116 1549.28 358 1525.7 358C1502.12 358 1483 377.116 1483 400.696C1483 424.277 1502.12 443.393 1525.7 443.393C1549.28 443.393 1568.39 424.277 1568.39 400.696ZM1526.7 460C1550.28 460 1569.39 479.116 1569.39 502.696C1569.39 526.277 1550.28 545.393 1526.7 545.393C1503.12 545.393 1484 526.277 1484 502.696C1484 479.116 1503.12 460 1526.7 460ZM1569.39 604.696C1569.39 581.116 1550.28 562 1526.7 562C1503.12 562 1484 581.116 1484 604.696C1484 628.277 1503.12 647.393 1526.7 647.393C1550.28 647.393 1569.39 628.277 1569.39 604.696ZM1569.39 199.696C1569.39 176.116 1550.28 157 1526.7 157C1503.12 157 1484 176.116 1484 199.696C1484 223.277 1503.12 242.393 1526.7 242.393C1550.28 242.393 1569.39 223.277 1569.39 199.696ZM1525.7 55C1549.28 55 1568.39 74.1158 1568.39 97.6963C1568.39 121.277 1549.28 140.393 1525.7 140.393C1502.12 140.393 1483 121.277 1483 97.6963C1483 74.1158 1502.12 55 1525.7 55Z" fill="black"/>
<path d="M161.5 231H104V181H274V231H216.5V531H161.5V231Z" fill="white"/>
<rect x="711" y="120" width="633" height="461" fill="#FF8A00"/>
<path d="M465.5 181H520.5V328.5L590.5 181H645.5L580 309.5L646.5 531H589L542.5 375L520.5 419.5V531H465.5V181ZM824.109 536C797.443 536 777.276 528.5 763.609 513.5C749.943 498.167 743.109 476.333 743.109 448V428H795.109V452C795.109 474.667 804.609 486 823.609 486C832.943 486 839.943 483.333 844.609 478C849.609 472.333 852.109 463.333 852.109 451C852.109 436.333 848.776 423.5 842.109 412.5C835.443 401.167 823.109 387.667 805.109 372C782.443 352 766.609 334 757.609 318C748.609 301.667 744.109 283.333 744.109 263C744.109 235.333 751.109 214 765.109 199C779.109 183.667 799.443 176 826.109 176C852.443 176 872.276 183.667 885.609 199C899.276 214 906.109 235.667 906.109 264V278.5H854.109V260.5C854.109 248.5 851.776 239.833 847.109 234.5C842.443 228.833 835.609 226 826.609 226C808.276 226 799.109 237.167 799.109 259.5C799.109 272.167 802.443 284 809.109 295C816.109 306 828.609 319.333 846.609 335C869.609 355 885.443 373.167 894.109 389.5C902.776 405.833 907.109 425 907.109 447C907.109 475.667 899.943 497.667 885.609 513C871.609 528.333 851.109 536 824.109 536ZM938.645 181H1088.64V231H993.645V323.5H1069.14V373.5H993.645V481H1088.64V531H938.645V181ZM1120.29 181H1201.79C1230.12 181 1250.79 187.667 1263.79 201C1276.79 214 1283.29 234.167 1283.29 261.5V283C1283.29 319.333 1271.29 342.333 1247.29 352V353C1260.62 357 1269.95 365.167 1275.29 377.5C1280.95 389.833 1283.79 406.333 1283.79 427V488.5C1283.79 498.5 1284.12 506.667 1284.79 513C1285.45 519 1287.12 525 1289.79 531H1233.79C1231.79 525.333 1230.45 520 1229.79 515C1229.12 510 1228.79 501 1228.79 488V424C1228.79 408 1226.12 396.833 1220.79 390.5C1215.79 384.167 1206.95 381 1194.29 381H1175.29V531H1120.29V181ZM1195.29 331C1206.29 331 1214.45 328.167 1219.79 322.5C1225.45 316.833 1228.29 307.333 1228.29 294V267C1228.29 254.333 1225.95 245.167 1221.29 239.5C1216.95 233.833 1209.95 231 1200.29 231H1175.29V331H1195.29Z" fill="white"/>
<path fill-rule="evenodd" clip-rule="evenodd" d="M324 380.455V322.279C327.003 322.226 329.43 318.996 329.47 315H331.73C331.771 319.03 334.238 322.28 337.276 322.28C340.314 322.28 342.781 319.03 342.822 315H345.082C345.122 319.03 347.589 322.28 350.627 322.28C353.665 322.28 356.133 319.03 356.173 315H357.73C357.771 319.03 360.238 322.28 363.276 322.28C366.314 322.28 368.781 319.03 368.822 315H371.082C371.122 319.03 373.589 322.28 376.627 322.28C379.665 322.28 382.133 319.03 382.173 315H384.433C384.473 319.03 386.941 322.28 389.979 322.28C393.016 322.28 395.484 319.03 395.524 315H397.412C397.448 318.597 399.417 321.572 402 322.17V380.564C399.393 381.168 397.411 384.193 397.411 387.835C397.411 391.476 399.393 394.502 402 395.105V516C402 524.284 395.284 531 387 531H339C330.716 531 324 524.284 324 516V395.214C327.028 395.16 329.471 391.877 329.471 387.835C329.471 383.792 327.028 380.509 324 380.455ZM395.525 387.835C395.525 391.911 393.042 395.215 389.979 395.215C386.916 395.215 384.432 391.911 384.432 387.835C384.432 383.759 386.916 380.455 389.979 380.455C393.042 380.455 395.525 383.759 395.525 387.835ZM376.627 395.215C379.69 395.215 382.173 391.911 382.173 387.835C382.173 383.759 379.69 380.455 376.627 380.455C373.564 380.455 371.081 383.759 371.081 387.835C371.081 391.911 373.564 395.215 376.627 395.215ZM368.822 387.835C368.822 391.911 366.339 395.215 363.276 395.215C360.213 395.215 357.73 391.911 357.73 387.835C357.73 383.759 360.213 380.455 363.276 380.455C366.339 380.455 368.822 383.759 368.822 387.835ZM350.627 395.215C353.69 395.215 356.173 391.911 356.173 387.835C356.173 383.759 353.69 380.455 350.627 380.455C347.564 380.455 345.081 383.759 345.081 387.835C345.081 391.911 347.564 395.215 350.627 395.215ZM342.822 387.835C342.822 391.911 340.339 395.215 337.276 395.215C334.213 395.215 331.73 391.911 331.73 387.835C331.73 383.759 334.213 380.455 337.276 380.455C340.339 380.455 342.822 383.759 342.822 387.835Z" fill="white"/>
<path d="M2074.9 79L2075.11 133.339L1708.21 134.76L1708 80.4211L2074.9 79ZM2075.21 160.508L2075.32 187.678L1708.42 189.099L1708.32 161.93L2075.21 160.508ZM2075.42 214.847L2075.74 296.356L1708.84 297.777L1708.53 216.269L2075.42 214.847ZM2075.84 323.525L2075.95 350.695L1709.05 352.116L1708.95 324.947L2075.84 323.525ZM2076.16 405.034L2076.37 459.373L1709.47 460.794L1709.26 406.455L2076.16 405.034ZM2076.47 486.542L2076.79 568.051L1709.89 569.472L1709.58 487.963L2076.47 486.542ZM2076.89 595.22L2077 622.39L1710.1 623.811L1710 596.641L2076.89 595.22Z" fill="white"/>
</svg>
